# AST/ASF file generated using VICON BodyLanguage
# -----------------------------------------------
:version 1.10
:name VICON
:units
  mass 1.0
  length 0.45
  angle deg
:documentation
   .ast/.asf automatically generated from VICON data using
   VICON BodyBuilder and BodyLanguage model FoxedUp or BRILLIANT.MOD
:root
   order TX TY TZ RX RY RZ
   axis XYZ
   position 0 0 0  
   orientation 0 0 0 
:bonedata
  begin
     id 1 
     name lhipjoint
     direction 0.653368 -0.678499 0.335782 
     length 2.51848 
     axis 0 0 0  XYZ
  end
  begin
     id 2 
     name lfemur
     direction 0.34202 -0.939693 0  
     length 6.57749  
     axis 0 0 20  XYZ
    dof rx ry rz
    limits (-160.0 20.0)
           (-70.0 70.0)
           (-60.0 70.0)
  end
  begin
     id 3 
     name ltibia
     direction 0.34202 -0.939693 0   
     length 7.94618   
     axis 0 0 20   XYZ
    dof rx
    limits (-10.0 170.0)
  end
  begin
     id 4 
     name lfoot
     direction 0.0811271 -0.222895 0.971461   
     length 2.31339   
     axis -90 7.62852e-016 20   XYZ
    dof rx rz
    limits (-45.0 90.0)
           (-70.0 20.0)
  end
  begin
     id 5 
     name ltoes
     direction 1.53568e-011 -4.21885e-011 1   
     length 1.15935   
     axis -90 7.62852e-016 20   XYZ
    dof rx
    limits (-90.0 20.0)
  end
  begin
     id 6 
     name rhipjoint
     direction -0.640058 -0.688614 0.340788   
     length 2.48149  
     axis 0 0 0  XYZ 
  end
  begin
     id 7 
     name rfemur
     direction -0.34202 -0.939693 0   
     length 6.57875   
     axis 0 0 -20   XYZ
    dof rx ry rz
    limits (-160.0 20.0)
           (-70.0 70.0)
           (-70.0 60.0)
  end
  begin
     id 8 
     name rtibia
     direction -0.34202 -0.939693 0   
     length 7.977   
     axis 0 0 -20   XYZ
    dof rx
    limits (-10.0 170.0)
 end
 begin
     id 9 
     name rfoot
     direction -0.0979793 -0.269196 0.958089   
     length 2.19857  
     axis -90 -7.62852e-016 -20   XYZ
    dof rx rz
    limits (-45.0 90.0)
           (-20.0 70.0)
  end
  begin
     id 10 
     name rtoes
     direction -1.53556e-011 -4.21868e-011 1   
     length 1.09838   
     axis -90 -7.62852e-016 -20   XYZ
    dof rx
    limits (-90.0 20.0)
  end
  begin
     id 11 
     name lowerback
     direction 0.0149039 0.998517 -0.0523597   
     length 2.10809   
     axis 0 0 0   XYZ
    dof rx ry rz
    limits (-20.0 45.0)
           (-30.0 30.0)
           (-30.0 30.0)
  end
  begin
     id 12 
     name upperback
     direction -0.00882659 0.999418 -0.0329624   
     length 2.1102   
     axis 0 0 0   XYZ
    dof rx ry rz
    limits (-20.0 45.0)
           (-30.0 30.0)
           (-30.0 30.0)
  end
  begin
     id 13 
     name thorax
     direction -0.0165585 0.999826 -0.0085833   
     length 2.11039   
     axis 0 0 0   XYZ
    dof rx ry rz
    limits (-20.0 45.0)
           (-30.0 30.0)
           (-30.0 30.0)
  end
  begin
     id 14 
     name lowerneck
     direction -0.0130877 0.999911 0.00260353   
     length 1.73253   
     axis 0 0 0   XYZ
    dof rx ry rz
    limits (-20.0 45.0)
           (-30.0 30.0)
           (-30.0 30.0)
  end
  begin
     id 15 
     name upperneck
     direction -0.0348454 0.928205 -0.370435   
     length 1.66692   
     axis 0 0 0   XYZ
    dof rx ry rz
    limits (-20.0 45.0)
           (-30.0 30.0)
           (-30.0 30.0)
  end
  begin
     id 16
     name head
     direction -0.00807754 0.992494 -0.122026  
     length 1.72765  
     axis 0 0 0   XYZ
    dof rx ry rz
    limits (-20.0 45.0)
           (-30.0 30.0)
           (-30.0 30.0)
  end
  begin
     id 17 
     name lclavicle
     direction 0.987582 0.144023 0.0627671  
     length 3.49235  
     axis 0 0 0   XYZ
    dof ry rz
    limits (-20.0 10.0)
           (0.0 20.0)
  end
  begin
     id 18 
     name lhumerus
     direction 1 -4.48958e-011 -1.45183e-018   
     length 5.41917   
     axis 180 -30 -90   XYZ
    dof rx ry rz
    limits (-60.0 90.0)
           (-90.0 90.0)
           (-90.0 90.0)
  end
  begin
     id 19
     name lradius
     direction 1 -4.48999e-011 5.75106e-027   
     length 2.44373   
     axis 180 -30 -90   XYZ
    dof rx
    limits (-10.0 170.0)
  end
  begin
     id 20
     name lwrist
     direction 1 -4.48987e-011 1.53461e-026   
     length 1.22186   
     axis -1.09697e-014 90 90   XYZ
    dof ry
    limits (-180.0 0.0)
 end
  begin
     id 21 
     name lhand
     direction 1 -4.48881e-011 3.06923e-026   
     length 0.727502   
     axis -1.95843e-014 90 90   XYZ
    dof rx rz
    limits (-90.0 90.0)
           (-45.0 45.0)
  end
  begin
     id 22 
     name lfingers
     direction 1 -4.48907e-011 6.13845e-026   
     length 0.586531   
     axis -3.91686e-014 90 90   XYZ
    dof rx
    limits (0.0 90.0)
  end
  begin
     id 23
     name lthumb
     direction 0.707107 -6.3487e-011 0.707107   
     length 0.842145   
     axis -90 45 2.85299e-015   XYZ
    dof rx rz
    limits (-45.0 45.0)
           (-45.0 45.0)
  end
  begin
     id 24 
     name rclavicle
     direction -0.980998 0.169556 0.0943023   
     length 3.29272  
     axis 0 0 0   XYZ 
    dof ry rz
    limits (-10.0 20.0)
           (-20.0 0.0)
  end
  begin
     id 25 
     name rhumerus
     direction -1 -1.83355e-005 2.45537e-005  
     length 5.58976   
     axis 180 30 90   XYZ
    dof rx ry rz
    limits (-90.0 60.0)
           (-90.0 90.0)
           (-90.0 90.0)
  end
  begin
     id 26 
     name rradius
     direction -1 -4.48967e-011 5.97228e-027   
     length 2.4806   
     axis 180 30 90   XYZ
    dof rx
    limits (-10.0 170.0)
  end
  begin
     id 27 
     name rwrist
     direction -1 -4.48963e-011 1.53461e-026   
     length 1.2403   
     axis -1.09697e-014 -90 -90   XYZ
    dof ry
    limits (-180.0 0.0)
  end
  begin
     id 28
     name rhand
     direction -1 -4.48881e-011 3.06923e-026   
     length 0.816009   
     axis -1.95843e-014 -90 -90   XYZ
    dof rx rz
    limits (-90.0 90.0)
           (-45.0 45.0)
  end
  begin
     id 29
     name rfingers
     direction -1 -4.49018e-011 6.13845e-026   
     length 0.657887   
     axis -3.91686e-014 -90 -90   XYZ
    dof rx
    limits (0.0 90.0)
  end
  begin
     id 30
     name rthumb
     direction -0.707107 -6.34872e-011 0.707107   
     length 0.944599   
     axis -90 -45 -2.85299e-015   XYZ
    dof rx rz
    limits (-45.0 45.0)
           (-45.0 45.0)
  end
:hierarchy
  begin
    root lhipjoint rhipjoint lowerback
    lhipjoint lfemur
    lfemur ltibia
    ltibia lfoot
    lfoot ltoes
    rhipjoint rfemur
    rfemur rtibia
    rtibia rfoot
    rfoot rtoes
    lowerback upperback
    upperback thorax
    thorax lowerneck lclavicle rclavicle
    lowerneck upperneck
    upperneck head
    lclavicle lhumerus
    lhumerus lradius
    lradius lwrist
    lwrist lhand lthumb
    lhand lfingers
    rclavicle rhumerus
    rhumerus rradius
    rradius rwrist
    rwrist rhand rthumb
    rhand rfingers
  end

#!OML:ASF F:\VICON\USERDATA\INSTALL\rory3\rory3.ASF
:FULLY-SPECIFIED
:DEGREES
49
root 3.56725 16.9777 11.425 31.503 -66.7232 -8.505
lowerback -5.2245 -0.467736 -0.707376
upperback -8.2445 -0.748522 2.72543
thorax -5.59896 -0.346425 3.24523
lowerneck -5.80077 -11.4331 -9.98104
upperneck 34.1115 -21.5407 12.3931
head 15.5995 -9.76339 3.22343
rclavicle 3.91357e-014 -8.34896e-015
rhumerus -174.302 -3.07731 86.626
rradius 10.693
rwrist 120.998
rhand -39.689 31.9383
rfingers 7.12502
rthumb -12.668 2.34254
lclavicle 3.91357e-014 -8.34896e-015
lhumerus -6.74099 33.4812 99.4052
lradius 15.2142
lwrist 13.3593
lhand -4.26199 24.9829
lfingers 7.12502
lthumb 21.5024 53.8094
rfemur -49.0492 5.27099 7.45365
rtibia 42.0383
rfoot -56.8234 -20.8258
rtoes 56.2473
lfemur -39.0906 0.75239 -24.3039
ltibia 35.6645
lfoot -40.6586 25.6038
ltoes 20.4338
50
root 3.56778 16.9936 11.3646 31.6159 -67.803 -8.43982
lowerback -5.50954 -0.429446 -0.562952
upperback -8.17216 -0.704761 2.79176
thorax -5.36366 -0.335985 3.22782
lowerneck -5.66279 -11.179 -10.4286
upperneck 34.0172 -21.2066 12.7249
head 15.5827 -9.65886 3.50709
rclavicle -1.45361e-014 -2.42517e-014
rhumerus -174.584 -2.23706 85.7486
rradius 10.848
rwrist 123.053
rhand -40.4066 31.6228
rfingers 7.12502
rthumb -13.3597 2.07109
lclavicle -1.45361e-014 -2.42517e-014
lhumerus -6.1433 27.6149 100.389
lradius 15.0296
lwrist 14.4622
lhand -5.31242 25.4623
lfingers 7.12502
lthumb 20.4932 54.4007
rfemur -48.4296 4.34895 6.76641
rtibia 41.846
rfoot -58.0768 -20.2705
rtoes 56.3187
lfemur -39.1747 1.09285 -24.4564
ltibia 35.529
lfoot -41.2123 25.6097
ltoes 21.4684
51
root 3.57334 17.001 11.2946 32.3358 -68.8114 -8.99124
lowerback -5.6524 -0.221037 -0.32102
upperback -8.11878 -0.431887 2.9268
thorax -5.24324 -0.212011 3.23316
lowerneck -5.6555 -11.2097 -10.6092
upperneck 33.9397 -21.2319 12.7635
head 15.5782 -9.68754 3.54459
rclavicle -3.87133e-014 -2.50469e-014
rhumerus -174.849 -1.25785 85.0864
rradius 10.692
rwrist 124.814
rhand -41.2027 31.7558
rfingers 7.12502
rthumb -14.1269 2.25604
lclavicle -3.87133e-014 -2.50469e-014
lhumerus -5.64881 20.7384 101.593
lradius 15.0224
lwrist 15.6688
lhand -5.64409 26.6965
lfingers 7.12502
lthumb 20.1745 55.6689
rfemur -48.1162 3.78287 6.38663
rtibia 41.6172
rfoot -60.1342 -19.3924
rtoes 57.2575
lfemur -39.4021 1.35809 -24.2612
ltibia 35.4661
lfoot -41.8722 25.5505
ltoes 22.6143
52
root 3.58951 17.0055 11.221 34.0157 -69.444 -10.5369
lowerback -5.58756 0.0346709 0.354321
upperback -8.12132 -0.100205 3.14384
thorax -5.30192 -0.079241 3.08499
lowerneck -5.65585 -11.3225 -10.6026
upperneck 33.6769 -21.3984 12.8893
head 15.4976 -9.74623 3.55658
rclavicle -3.67752e-014 1.63003e-014
rhumerus -174.97 -1.27214 84.3951
rradius 10.3081
rwrist 125.475
rhand -41.7573 31.9577
rfingers 7.12502
rthumb -14.6613 2.49603
lclavicle -3.67752e-014 1.63003e-014
lhumerus -5.58827 12.3233 102.808
lradius 15.6723
lwrist 18.0227
lhand -5.87685 27.8249
lfingers 7.12502
lthumb 19.9507 56.8208
rfemur -47.8805 3.10606 6.6702
rtibia 41.3617
rfoot -61.9936 -18.7558
rtoes 57.9107
lfemur -39.7906 1.60331 -23.5898
ltibia 35.4319
lfoot -42.3163 25.543
ltoes 23.8637
53
root 3.6002 17.007 11.1646 33.8299 -70.0885 -10.2363
lowerback -5.57024 0.094544 0.546107
upperback -8.04269 -0.0229492 3.21006
thorax -5.23152 -0.0500864 3.04597
lowerneck -5.72166 -11.3239 -10.3177
upperneck 33.3939 -21.3334 12.8103
head 15.3053 -9.69133 3.48526
rclavicle 1.46604e-014 7.55382e-015
rhumerus -174.017 -23.3403 80.5553
rradius 8.71569
rwrist 103.986
rhand -40.1194 28.7796
rfingers 7.12502
rthumb -13.0829 -0.790013
lclavicle 1.46604e-014 7.55382e-015
lhumerus -5.69809 3.81518 103.752
lradius 16.8264
lwrist 20.6061
lhand -6.29054 28.855
lfingers 7.12502
lthumb 19.553 57.8918
rfemur -47.356 0.810159 6.73635
rtibia 41.173
rfoot -61.8553 -19.8628
rtoes 58.0786
lfemur -39.8991 1.62649 -23.676
ltibia 35.3617
lfoot -42.6955 25.493
ltoes 24.9979
54
root 3.59552 17.0177 11.0914 33.4602 -71.2178 -9.75929
lowerback -5.83843 0.31483 0.408064
upperback -7.82594 0.266161 3.12763
thorax -4.86383 0.0992913 3.03642
lowerneck -5.72474 -11.3342 -10.1714
upperneck 33.0704 -21.3329 12.9345
head 15.1478 -9.6651 3.50942
rclavicle 3.29983e-014 5.56597e-015
rhumerus -171.532 -45.0927 75.3196
rradius 7.40182
rwrist 82.8485
rhand -39.3054 26.6399
rfingers 7.12502
rthumb -12.2982 -2.97843
lclavicle 3.29983e-014 5.56597e-015
lhumerus -5.93367 -5.47792 104.44
lradius 18.6271
lwrist 24.0345
lhand -7.32916 30.5211
lfingers 7.12502
lthumb 18.5542 59.6563
rfemur -46.8532 -0.148037 6.01145
rtibia 41.0454
rfoot -62.7421 -19.5185
rtoes 58.645
lfemur -39.841 1.69486 -23.865
ltibia 35.2556
lfoot -43.4508 25.5371
ltoes 25.6392
55
root 3.59654 17.0226 11.0114 33.2562 -72.1343 -9.48204
lowerback -5.79228 0.489443 0.525956
upperback -7.75307 0.494491 2.9659
thorax -4.81968 0.203474 2.8034
lowerneck -5.73523 -11.3566 -9.74062
upperneck 32.9255 -21.4277 12.9549
head 15.0403 -9.65889 3.43018
rclavicle -5.54609e-014 -3.18055e-015
rhumerus -162.743 -66.2898 63.8602
rradius 6.33576
rwrist 61.591
rhand -39.3247 25.8726
rfingers 7.12502
rthumb -12.3167 -3.74463
lclavicle -5.54609e-014 -3.18055e-015
lhumerus -6.60066 -14.4642 104.815
lradius 21.1147
lwrist 28.0252
lhand -8.65493 32.5985
lfingers 7.12502
lthumb 17.2786 61.8504
rfemur -46.3218 -0.583274 5.37796
rtibia 40.9559
rfoot -64.3149 -17.0578
rtoes 59.4861
lfemur -39.7799 1.2971 -23.6764
ltibia 35.086
lfoot -44.6213 25.3701
ltoes 27.1785
56
root 3.59853 17.0188 10.9316 32.9127 -73.0061 -9.05817
lowerback -5.67005 0.59534 0.44965
upperback -7.72843 0.640319 2.96069
thorax -4.86995 0.280707 2.84225
lowerneck -5.75719 -11.3228 -9.45996
upperneck 32.8217 -21.3963 12.9231
head 14.9454 -9.61915 3.37831
rclavicle -1.99779e-014 3.18055e-014
rhumerus -95.0923 -81.951 -6.31311
rradius 6.2017
rwrist 41.0561
rhand -38.8427 24.0909
rfingers 7.12502
rthumb -11.8519 -5.55372
lclavicle -1.99779e-014 3.18055e-014
lhumerus -7.34219 -21.8574 105.336
lradius 23.6652
lwrist 31.3192
lhand -8.92397 33.8996
lfingers 7.12502
lthumb 17.0196 63.174
rfemur -45.9342 -2.31886 5.38145
rtibia 40.8437
rfoot -64.301 -15.9578
rtoes 60.0494
lfemur -39.7356 1.14539 -23.617
ltibia 34.8778
lfoot -45.2797 25.4827
ltoes 28.0917
57
root 3.59891 17.0266 10.8606 33.2325 -73.6004 -9.4242
lowerback -5.55 0.926456 0.929647
upperback -7.62366 1.07498 2.87275
thorax -4.83435 0.472004 2.48446
lowerneck -5.71748 -11.4408 -9.2453
upperneck 32.5346 -21.6438 13.1692
head 14.8541 -9.68236 3.39496
rclavicle 3.94588e-014 -1.59028e-015
rhumerus -24.2548 -67.515 -79.706
rradius 7.28479
rwrist 21.1753
rhand -37.8433 20.983
rfingers 7.12502
rthumb -10.8881 -8.71476
lclavicle 3.94588e-014 -1.59028e-015
lhumerus -8.28403 -29.3737 106.099
lradius 26.6236
lwrist 34.9643
lhand -9.20441 34.6117
lfingers 7.12502
lthumb 16.7497 63.9092
rfemur -45.5522 -3.32435 5.27997
rtibia 40.7802
rfoot -65.1749 -16.3552
rtoes 60.4252
lfemur -39.5968 1.36552 -23.4287
ltibia 34.635
lfoot -45.1269 26.0998
ltoes 27.6741
58
root 3.59721 17.0348 10.7753 32.0591 -74.2836 -8.43511
lowerback -5.19872 1.09759 0.792393
upperback -7.49654 1.32099 2.8285
thorax -4.90828 0.6049 2.51244
lowerneck -5.64994 -11.4974 -9.31095
upperneck 32.3592 -21.7952 13.4367
head 14.8366 -9.73502 3.48494
rclavicle 3.37934e-015 -9.54166e-015
rhumerus -14.9744 -46.664 -91.7174
rradius 8.8377
rwrist 0.297179
rhand -37.5407 19.1949
rfingers 7.12502
rthumb -10.5963 -10.518
lclavicle 3.37934e-015 -9.54166e-015
lhumerus -9.2751 -35.9629 106.723
lradius 30.0137
lwrist 39.216
lhand -10.8306 35.6692
lfingers 7.12502
lthumb 15.1837 65.0921
rfemur -44.4207 -1.30428 3.04322
rtibia 40.7605
rfoot -68.7668 -12.6803
rtoes 61.0935
lfemur -39.2508 1.99269 -23.7947
ltibia 34.3574
lfoot -44.6203 26.4344
ltoes 27.2964
59
root 3.59377 17.027 10.6741 28.6884 -75.2723 -5.18177
lowerback -4.7388 0.791865 -0.573223
upperback -7.4346 0.957529 3.2308
thorax -5.12645 0.509728 3.69468
lowerneck -5.61269 -11.1827 -9.8996
upperneck 32.4539 -21.1958 13.3087
head 14.8252 -9.55864 3.64832
rclavicle 4.73108e-014 3.10104e-014
rhumerus -12.9017 -23.9435 -97.2138
rradius 11.0946
rwrist -21.4695
rhand -38.1366 18.305
rfingers 7.12502
rthumb -11.171 -11.3776
lclavicle 4.73108e-014 3.10104e-014
lhumerus -10.1077 -41.0951 106.657
lradius 34.1709
lwrist 44.3237
lhand -12.7942 36.7854
lfingers 7.12502
lthumb 13.2916 66.3415
rfemur -44.0364 -2.37253 2.07344
rtibia 40.8507
rfoot -68.7875 -12.7893
rtoes 61.1478
lfemur -38.8699 2.40634 -24.7163
ltibia 34.0675
lfoot -44.5175 26.4742
ltoes 27.9514
60
root 3.5915 17.0199 10.5801 27.0911 -76.1914 -3.58133
lowerback -4.49359 0.465811 -1.29209
upperback -7.42298 0.543414 3.797
thorax -5.24789 0.356584 4.69766
lowerneck -5.42856 -10.7569 -10.4248
upperneck 32.4109 -20.3417 13.0273
head 14.6343 -9.29576 3.79787
rclavicle 1.75924e-014 -2.38542e-015
rhumerus -13.4105 -8.47606 -100.049
rradius 13.8345
rwrist -34.7258
rhand -37.5375 16.3351
rfingers 7.12502
rthumb -10.5932 -13.3779
lclavicle 1.75924e-014 -2.38542e-015
lhumerus -10.3573 -43.1394 107.317
lradius 36.7327
lwrist 46.8849
lhand -13.8698 36.3326
lfingers 7.12502
lthumb 12.2546 65.9535
rfemur -44.0453 -4.1558 2.05048
rtibia 40.9402
rfoot -68.2295 -13.6322
rtoes 61.1009
lfemur -38.6645 2.15904 -24.8512
ltibia 33.818
lfoot -45.5394 26.4005
ltoes 29.501
61
root 3.59042 17.0156 10.4933 26.4673 -77.1325 -2.8895
lowerback -4.38185 0.569573 -1.27552
upperback -7.35119 0.681851 3.72668
thorax -5.24543 0.423072 4.61231
lowerneck -5.50158 -10.6165 -9.96907
upperneck 32.3257 -20.1968 13.0444
head 14.5291 -9.1813 3.75609
rclavicle 1.78906e-015 5.56597e-015
rhumerus -14.2866 2.3176 -102.583
rradius 17.1471
rwrist -44.5945
rhand -39.5239 15.1122
rfingers 7.12502
rthumb -12.5088 -14.4934
lclavicle 1.78906e-015 5.56597e-015
lhumerus -11.0107 -46.8411 107.292
lradius 40.1349
lwrist 50.1055
lhand -14.7123 35.6929
lfingers 7.12502
lthumb 11.4422 65.3606
rfemur -44.1125 -5.32629 1.96846
rtibia 41.0421
rfoot -68.1648 -14.1069
rtoes 61.216
lfemur -38.6108 2.08114 -24.8128
ltibia 33.6683
lfoot -46.547 26.5215
ltoes 30.047
62
root 3.58883 17.0115 10.4046 25.2794 -78.0935 -1.58902
lowerback -4.31899 0.873124 -1.27847
upperback -7.18287 1.08432 3.30499
thorax -5.12559 0.613922 4.16532
lowerneck -6.01078 -10.7326 -8.67293
upperneck 32.2954 -20.5149 12.9054
head 14.4954 -9.15344 3.40195
rclavicle 3.04141e-014 3.18055e-014
rhumerus -15.1436 10.6242 -104.861
rradius 20.992
rwrist -53.1781
rhand -36.979 11.6361
rfingers 7.12502
rthumb -10.0544 -18.1037
lclavicle 3.04141e-014 3.18055e-014
lhumerus -11.4432 -50.6144 106.955
lradius 43.5414
lwrist 52.9642
lhand -15.2154 35.5395
lfingers 7.12502
lthumb 10.957 65.2336
rfemur -44.1922 -6.01698 1.64038
rtibia 41.1351
rfoot -68.259 -14.3395
rtoes 61.2751
lfemur -38.6475 2.22671 -24.9603
ltibia 33.5892
lfoot -47.2548 26.7191
ltoes 30.1505
